<svg width="24" height="24" viewBox="0 0 24 24" fill="none" xmlns="http://www.w3.org/2000/svg">
    <g clip-path="url(#clip0)">
        <path d="M6.67871 4.41864H9.79112V7.53109H6.67871V4.41864Z" fill="#101010"/>
        <path d="M16.8957 6.02487H21.3292L15.7161 0.411774V4.84521C15.7161 5.4957 16.2453 6.02487 16.8957 6.02487Z" fill="#101010"/>
        <path d="M16.8959 7.4311C15.4701 7.4311 14.31 6.27108 14.31 4.84519V-0.000137329H4.84596C3.42007 -0.000137329 2.26001 1.15992 2.26001 2.58582V21.4139C2.26001 22.8398 3.42007 23.9999 4.84591 23.9999H19.1553C20.5812 23.9999 21.7412 22.8398 21.7412 21.4139V7.4311H16.8959ZM5.27257 3.7155C5.27257 3.32719 5.58734 3.01238 5.9757 3.01238H10.4943C10.8827 3.01238 11.1975 3.32719 11.1975 3.7155V8.23421C11.1975 8.62252 10.8827 8.93733 10.4943 8.93733H5.9757C5.58734 8.93733 5.27257 8.62252 5.27257 8.23421V3.7155ZM5.9757 10.5436H15.0131C15.4015 10.5436 15.7163 10.8585 15.7163 11.2468C15.7163 11.6351 15.4015 11.9499 15.0131 11.9499H5.9757C5.58734 11.9499 5.27257 11.6351 5.27257 11.2468C5.27257 10.8584 5.58734 10.5436 5.9757 10.5436ZM18.0257 20.9873H5.9757C5.58734 20.9873 5.27257 20.6725 5.27257 20.2842C5.27257 19.8959 5.58734 19.581 5.9757 19.581H18.0257C18.4139 19.581 18.7288 19.8959 18.7288 20.2842C18.7288 20.6725 18.4139 20.9873 18.0257 20.9873ZM18.0257 17.9749H5.9757C5.58734 17.9749 5.27257 17.6601 5.27257 17.2718C5.27257 16.8834 5.58734 16.5686 5.9757 16.5686H18.0257C18.4139 16.5686 18.7288 16.8834 18.7288 17.2718C18.7288 17.6601 18.4139 17.9749 18.0257 17.9749ZM18.0257 14.9623H5.9757C5.58734 14.9623 5.27257 14.6475 5.27257 14.2592C5.27257 13.8709 5.58734 13.5561 5.9757 13.5561H18.0257C18.4139 13.5561 18.7288 13.8709 18.7288 14.2592C18.7288 14.6475 18.4139 14.9623 18.0257 14.9623Z" fill="#101010"/>
    </g>
    <defs>
        <clipPath id="clip0">
            <rect width="24" height="24" fill="white" transform="translate(0.000488281 -0.000137329)"/>
        </clipPath>
    </defs>
</svg>
