<svg width="24" height="24" viewBox="0 0 24 24" fill="none" xmlns="http://www.w3.org/2000/svg">
    <g clip-path="url(#clip0)">
        <path d="M21.4374 10.0637C21.5264 9.50017 21.582 8.88229 21.596 8.18944C21.5906 5.21855 20.1685 4.16731 19.8948 3.67449C20.2978 1.42349 19.8281 0.399577 19.6096 0.0490647C18.8038 -0.236962 16.806 0.787298 15.7144 1.50833C13.9348 0.987376 10.1737 1.03822 8.76331 1.64317C6.16099 -0.220213 4.78462 0.0639076 4.78462 0.0639076C4.78462 0.0639076 3.8948 1.65952 4.54939 3.99381C3.69316 5.08492 3.05497 5.85634 3.05497 7.90256C3.05497 8.39262 3.08541 8.85571 3.13706 9.30125C3.87444 13.1784 6.94656 14.851 9.96428 15.1394C9.51017 15.4845 8.965 16.1375 8.88958 16.8941C8.31898 17.263 7.17121 17.385 6.27868 17.1043C5.02812 16.7092 4.54939 14.2327 2.67663 14.586C2.27141 14.6618 2.35194 14.9291 2.70285 15.157C3.2734 15.527 3.81075 15.9871 4.22495 16.9715C4.54307 17.7272 5.21215 19.0766 7.32756 19.0766C8.16734 19.0766 8.75554 18.9774 8.75554 18.9774C8.75554 18.9774 8.77154 20.9033 8.77154 21.6544C8.77154 22.5188 7.60497 22.7615 7.60497 23.1762C7.60497 23.3411 7.99108 23.3568 8.30138 23.3568C8.9146 23.3568 10.1905 22.846 10.1905 21.9475C10.1905 21.2336 10.2019 18.8345 10.2019 18.4143C10.2019 17.4963 10.6938 17.204 10.6938 17.204C10.6938 17.204 10.7541 22.1045 10.5754 22.7615C10.366 23.5342 9.98655 23.4244 9.98655 23.7683C9.98655 24.2814 11.5204 23.8937 12.0292 22.7705C12.4228 21.8932 12.2465 17.0875 12.2465 17.0875L12.6569 17.0786C12.6569 17.0786 12.6616 19.2796 12.6474 20.2851C12.6326 21.3265 12.5252 22.6432 13.1438 23.2645C13.5498 23.6732 14.7937 24.3903 14.7937 23.735C14.7937 23.3552 13.9226 23.0414 13.9226 22.0124V17.2723C14.4518 17.2723 14.5612 18.8304 14.5612 18.8304L14.7519 21.7251C14.7519 21.7251 14.6252 22.7814 15.893 23.2222C16.3406 23.379 17.298 23.4216 17.3428 23.1585C17.3878 22.8947 16.19 22.5047 16.1786 21.6871C16.1725 21.1892 16.201 20.8978 16.201 18.7319C16.201 16.5672 15.9102 15.7665 14.8968 15.1283C17.8354 14.8268 20.8875 13.5144 21.4374 10.0637Z" fill="#101010"/>
    </g>
    <defs>
        <clipPath id="clip0">
            <rect width="24" height="24" fill="white" transform="translate(0.000488281 -0.000137329)"/>
        </clipPath>
    </defs>
</svg>
