<svg width="24" height="24" viewBox="0 0 24 24" fill="none" xmlns="http://www.w3.org/2000/svg">
    <g clip-path="url(#clip0)">
        <path d="M23.9945 23.9999V23.9989H24.0005V15.1969C24.0005 10.8909 23.0735 7.57385 18.0395 7.57385C15.6195 7.57385 13.9955 8.90185 13.3325 10.1609H13.2625V7.97585H8.4895V23.9989H13.4595V16.0649C13.4595 13.9759 13.8555 11.9559 16.4425 11.9559C18.9915 11.9559 19.0295 14.3399 19.0295 16.1989V23.9999H23.9945Z" fill="#101010"/>
        <path d="M0.396484 7.97684H5.37248V23.9998H0.396484V7.97684Z" fill="#101010"/>
        <path d="M2.88249 -0.000137329C1.29149 -0.000137329 0.000488281 1.29086 0.000488281 2.88186C0.000488281 4.47286 1.29149 5.79086 2.88249 5.79086C4.47349 5.79086 5.76449 4.47286 5.76449 2.88186C5.76349 1.29086 4.47249 -0.000137329 2.88249 -0.000137329V-0.000137329Z" fill="#101010"/>
    </g>
    <defs>
        <clipPath id="clip0">
            <rect width="24" height="24" fill="white" transform="translate(0.000488281 -0.000137329)"/>
        </clipPath>
    </defs>
</svg>
