<svg width="24" height="24" viewBox="0 0 24 24" fill="none" xmlns="http://www.w3.org/2000/svg">
    <g clip-path="url(#clip0)">
        <path d="M15.9094 12.1229L24.0004 17.2379V6.79187L15.9094 12.1229Z" fill="#101010"/>
        <path d="M0.000488281 6.79187V17.2379L8.09149 12.1229L0.000488281 6.79187Z" fill="#101010"/>
        <path d="M22.5004 3.74986H1.50041C0.75191 3.74986 0.15791 4.30786 0.0454102 5.02636L12.0004 12.9029L23.9554 5.02636C23.8429 4.30786 23.2489 3.74986 22.5004 3.74986Z" fill="#101010"/>
        <path d="M14.5356 13.0288L12.4131 14.4268C12.2871 14.5093 12.1446 14.5498 12.0006 14.5498C11.8566 14.5498 11.7141 14.5093 11.5881 14.4268L9.46558 13.0273L0.048584 18.9838C0.164084 19.6963 0.755084 20.2498 1.50058 20.2498H22.5006C23.2461 20.2498 23.8371 19.6963 23.9526 18.9838L14.5356 13.0288Z" fill="#101010"/>
    </g>
    <defs>
        <clipPath id="clip0">
            <rect width="24" height="24" fill="white" transform="translate(0.000488281 -0.000137329)"/>
        </clipPath>
    </defs>
</svg>
